<?xml version="1.0" encoding="UTF-8" standalone="no"?>
<!DOCTYPE svg PUBLIC "-//W3C//DTD SVG 1.1//EN"
 "http://www.w3.org/Graphics/SVG/1.1/DTD/svg11.dtd">
<!-- Generated by graphviz version 2.30.1 (20130303.0731)
 -->
<!-- Title: G Pages: 1 -->
<svg width="112pt" height="96pt"
 viewBox="0.00 0.00 112.00 96.00" xmlns="http://www.w3.org/2000/svg" xmlns:xlink="http://www.w3.org/1999/xlink">
<g id="graph0" class="graph" transform="scale(1 1) rotate(0) translate(4 92)">
<title>G</title>
<polygon fill="white" stroke="white" points="-4,5 -4,-92 109,-92 109,5 -4,5"/>
<g id="clust1" class="cluster"><title>cluster_global</title>
<path fill="none" stroke="gray" d="M20,-8C20,-8 84,-8 84,-8 90,-8 96,-14 96,-20 96,-20 96,-68 96,-68 96,-74 90,-80 84,-80 84,-80 20,-80 20,-80 14,-80 8,-74 8,-68 8,-68 8,-20 8,-20 8,-14 14,-8 20,-8"/>
<text text-anchor="middle" x="52" y="-67.2" font-family="Times,serif" font-size="11.00" fill="gray">global</text>
</g>
<!-- \\ProtoIRC -->
<g id="node1" class="node"><title>\\ProtoIRC</title>
<g id="a_node1"><a xlink:href="protoirc.html" xlink:title="ProtoIRC" target="_parent">
<polygon fill="none" stroke="black" points="87.5,-52 16.5,-52 16.5,-16 87.5,-16 87.5,-52"/>
<text text-anchor="middle" x="52" y="-31.2" font-family="Courier,monospace" font-size="11.00">ProtoIRC</text>
</a>
</g>
</g>
</g>
</svg>
